<svg version="1.1" id="Layer_1" xmlns="http://www.w3.org/2000/svg" xmlns:xlink="http://www.w3.org/1999/xlink" x="0px" y="0px"
	 width="100%" viewBox="0 0 832 944" enable-background="new 0 0 832 944" xml:space="preserve">
<path fill="#000000" opacity="1.000000" stroke="none" 
	d="
M43.883217,556.140808 
	C28.459724,542.354492 22.374647,524.898560 21.951536,505.093353 
	C21.385889,478.616180 29.838129,454.254639 40.208118,430.491028 
	C57.496250,390.874023 81.063080,354.946930 106.267593,320.040375 
	C140.197678,273.049500 178.780334,230.046356 219.219391,188.645462 
	C255.920731,151.071228 293.647156,114.615791 335.671814,82.914726 
	C351.252350,71.161644 367.697876,60.810696 385.057983,51.760193 
	C409.119476,39.216022 432.738312,39.340656 456.869232,51.300003 
	C478.494568,62.017570 498.267548,75.499435 517.174683,90.336555 
	C559.225891,123.335548 597.300659,160.622803 634.212341,199.158142 
	C663.965698,230.220367 692.580872,262.294434 718.954773,296.281128 
	C754.285156,341.809509 786.532837,389.290283 808.110657,443.170959 
	C815.829102,462.444122 821.063171,482.399261 821.206726,503.329041 
	C821.431885,536.161804 804.159363,560.239014 773.090759,571.257263 
	C753.742310,578.118958 733.595398,580.627380 713.335083,582.032288 
	C694.733398,583.322266 676.062805,583.667725 657.416260,584.217590 
	C653.991882,584.318542 652.378845,585.556458 651.382935,588.750305 
	C647.148804,602.328674 644.673035,616.253418 643.655334,630.376526 
	C642.508301,646.293701 641.003052,662.258789 644.107910,678.173706 
	C646.015442,687.951843 651.026062,696.519592 654.617676,705.629272 
	C661.140747,722.174133 665.592712,739.022949 666.182068,756.945496 
	C667.167297,786.910706 655.135498,811.540527 636.196777,833.627991 
	C619.969543,852.553162 600.306824,867.305237 579.592163,880.834167 
	C576.755127,882.687012 574.244934,882.801086 571.238159,881.195190 
	C553.431152,871.684387 540.961060,857.523926 533.761047,838.690613 
	C532.998047,836.694946 532.604248,834.487000 530.511597,833.200500 
	C528.077026,833.848328 527.986572,836.132996 527.425781,837.896240 
	C518.952209,864.540344 500.601562,882.609680 477.036774,896.200378 
	C471.574158,899.350891 466.243103,898.887695 460.895081,895.939941 
	C442.544525,885.825623 429.793640,871.152222 424.002747,850.777039 
	C423.472382,848.910889 423.413483,846.808533 421.654297,845.375000 
	C419.636444,846.419189 419.979309,848.527283 419.518311,850.141907 
	C413.216095,872.213562 399.022766,887.419556 378.761017,897.478271 
	C375.507141,899.093628 372.649689,899.228271 369.329376,897.539246 
	C344.420349,884.867432 325.847595,866.492737 316.499786,839.634644 
	C315.659790,837.221252 315.320923,834.448975 313.036316,832.638245 
	C310.417694,833.960144 310.363098,836.561096 309.529144,838.591370 
	C301.987854,856.950684 290.295135,871.572205 272.286652,880.669556 
	C269.578857,882.037354 267.189911,882.608765 264.342621,880.885376 
	C233.080475,861.961792 206.032486,838.717041 188.225189,806.158142 
	C179.371887,789.970764 176.526321,772.546082 177.209213,754.083374 
	C178.057465,731.149719 185.769241,710.405029 195.575516,690.273987 
	C199.156433,682.922791 200.325485,675.440918 200.546005,667.636353 
	C201.268402,642.072632 199.797119,616.718628 192.751724,591.932678 
	C190.518784,584.077087 190.662827,584.140991 182.706451,583.994995 
	C152.735596,583.445190 122.739227,583.027039 93.169968,577.282471 
	C75.372803,573.824890 58.185608,568.746643 43.883217,556.140808 
M577.117432,749.836121 
	C577.681946,745.705627 578.335022,741.590881 579.873108,737.685974 
	C584.879395,724.975769 592.566040,714.655090 605.648438,709.318054 
	C609.705078,707.663269 610.288513,705.159363 608.489014,701.440125 
	C607.333313,699.051453 606.116394,696.548157 605.709106,693.972534 
	C604.926331,689.022705 602.214417,686.825745 597.493164,685.405396 
	C585.774902,681.880005 580.647644,673.676636 581.764038,661.548035 
	C582.715759,651.209412 590.234009,643.213013 601.249512,642.043762 
	C605.903748,641.549744 607.622864,639.464111 608.502869,635.481750 
	C610.731812,625.395447 613.704346,615.510376 616.866211,605.684998 
	C621.663208,590.778320 626.743042,575.980164 633.400940,561.765381 
	C635.183594,557.959473 637.532776,555.784485 642.023499,555.443176 
	C649.309143,554.889465 656.531738,553.556458 663.802429,552.745789 
	C686.693298,550.193481 709.249878,546.049011 731.122314,538.676270 
	C743.480469,534.510620 755.378540,529.389832 765.750854,521.231628 
	C773.584351,515.070312 777.395264,507.145538 777.817749,497.116730 
	C778.376831,483.843597 775.412781,471.362030 770.896973,459.076385 
	C761.533325,433.602051 748.495483,410.004120 733.893860,387.254639 
	C702.593018,338.487549 666.703857,293.203461 628.578918,249.654266 
	C586.173523,201.215561 541.755920,154.761398 492.570862,113.074509 
	C475.651184,98.734169 458.284882,84.998932 438.478302,74.682358 
	C427.468597,68.947807 416.600372,68.635269 405.478790,74.318871 
	C398.489380,77.890747 391.733826,81.817070 385.287689,86.279182 
	C352.272522,109.132675 323.133423,136.530106 294.566986,164.504166 
	C253.470322,204.748581 214.994720,247.426712 178.779541,292.119019 
	C147.600052,330.596863 118.096786,370.271515 93.766190,413.544556 
	C81.320076,435.680542 70.098068,458.405365 65.870087,483.743958 
	C63.112663,500.269409 66.302467,514.840698 81.912834,524.596313 
	C93.331703,531.732544 105.568504,536.764709 118.359596,540.654724 
	C145.732376,548.979248 173.942093,552.655762 202.275177,555.521606 
	C206.329819,555.931702 208.346695,557.457458 209.920746,561.205261 
	C220.125580,585.502686 228.451599,610.417358 235.050217,635.914307 
	C235.995056,639.565186 237.785172,641.526062 241.408646,643.283752 
	C250.139664,647.519104 255.632401,654.784607 256.288788,664.804077 
	C256.924438,674.507385 252.738800,681.503906 243.579468,685.283997 
	C241.350037,686.204224 239.364960,687.547852 238.740875,690.002197 
	C236.756577,697.805786 233.080978,704.932434 229.943069,712.268799 
	C228.655472,715.279053 229.008316,717.124329 231.698166,719.464050 
	C241.241486,727.765442 243.961929,738.910400 241.852554,750.779968 
	C240.161987,760.292969 233.482910,766.408997 224.235672,769.511841 
	C217.487518,771.776184 217.431061,771.864502 219.511215,778.710571 
	C220.380692,781.572083 221.417725,784.398499 222.594879,787.148254 
	C231.369553,807.645203 247.717438,821.167847 265.351807,833.516357 
	C267.869385,835.279175 269.723145,834.124756 271.603546,832.588745 
	C293.292755,814.870789 309.599792,793.504883 316.861206,765.969360 
	C317.332733,764.181213 317.139160,761.916992 319.411194,760.744263 
	C322.763580,765.443970 319.670441,771.713379 323.090546,776.278931 
	C323.881470,776.161194 324.388641,776.158020 324.844421,776.003418 
	C325.947021,775.629456 327.040649,775.220032 328.111633,774.763306 
	C338.485870,770.338806 348.849457,770.334656 359.113922,775.022644 
	C369.968933,779.980286 378.311615,787.687561 383.186920,798.650696 
	C391.231995,816.741638 382.890594,834.434265 363.442413,841.206299 
	C361.377136,841.925354 358.726593,841.816772 357.723724,844.442566 
	C365.176666,853.169373 373.188110,854.649048 382.418335,848.981079 
	C389.145660,844.850098 395.156036,839.937317 399.693115,833.330566 
	C409.978668,818.353149 415.948029,801.750793 418.789459,783.899780 
	C419.462463,779.671692 419.408203,775.231506 421.499786,771.064636 
	C422.983124,772.535461 423.049316,774.062378 423.164825,775.533997 
	C424.231171,789.120300 427.999939,802.001709 433.157349,814.546326 
	C439.001038,828.760071 447.654114,840.669495 460.633575,849.262573 
	C466.688416,853.271179 472.457520,853.785156 478.755829,849.754211 
	C488.137695,843.749695 496.274933,836.507202 502.655853,827.352051 
	C513.003052,812.506287 517.552612,795.561096 520.779236,778.064697 
	C521.876343,772.115417 521.032043,765.862183 523.683044,758.973877 
	C527.956787,768.613708 529.053101,778.405090 534.460327,786.531494 
	C535.368103,786.240295 536.050110,786.156555 536.584290,785.830444 
	C552.888489,775.880249 570.210449,784.619629 578.436401,796.876709 
	C584.897461,806.504089 583.471802,819.395203 575.186890,827.532776 
	C573.616150,829.075745 571.511169,830.514954 573.541138,832.887512 
	C575.239319,834.872192 577.252136,833.679199 578.924561,832.552917 
	C593.431885,822.783142 606.226440,811.227722 615.825073,796.459045 
	C619.361877,791.017273 618.317810,789.465576 611.645142,789.169250 
	C600.411743,788.670471 590.955322,784.629822 584.182861,775.224792 
	C578.889038,767.873230 577.114197,759.551453 577.117432,749.836121 
z"/>
<path fill="#000000" opacity="1.000000" stroke="none" 
	d="
M389.727020,607.792358 
	C364.989105,621.325378 338.647095,625.624695 311.517303,621.776489 
	C281.263214,617.485107 257.043304,601.582031 238.830261,577.254395 
	C215.195679,545.684875 206.370941,509.855255 210.593887,470.786591 
	C213.592514,443.044617 222.465424,417.602448 240.795029,396.001495 
	C263.371063,369.396179 291.977203,355.958588 326.968567,355.575714 
	C345.810791,355.369598 364.279846,356.905243 381.940979,363.799164 
	C390.151978,367.004242 398.091339,370.912231 406.119904,374.576019 
	C416.438538,379.284851 426.733368,379.329254 436.996307,374.509796 
	C452.390625,367.280701 467.794739,359.847778 484.821655,357.495636 
	C513.116699,353.586823 541.070862,354.062317 567.291809,367.473663 
	C592.346191,380.288361 609.652527,400.369171 621.044739,425.832703 
	C633.481079,453.629852 636.342590,483.101440 631.594055,512.488342 
	C624.522705,556.249878 603.191101,591.487854 562.233704,612.262817 
	C541.614136,622.721680 519.575378,624.257202 496.945465,621.830566 
	C481.797028,620.206116 467.412659,615.926880 454.352142,608.399414 
	C432.834625,595.997742 411.653076,594.659485 389.727020,607.792358 
M426.308746,420.742584 
	C424.794434,423.016876 424.103149,425.930511 421.541351,427.319855 
	C419.665436,426.640717 419.267548,425.083466 418.614166,423.785248 
	C413.223206,413.074219 405.635742,404.117340 396.998871,395.883453 
	C357.185303,357.927521 294.647614,362.727722 259.628326,401.900024 
	C223.366882,442.461761 221.469040,507.499512 256.830872,548.805664 
	C281.299927,577.388000 312.810425,589.419434 349.896149,582.462097 
	C380.269409,576.763855 402.406372,558.418945 417.673157,531.694885 
	C418.760071,529.792236 418.975830,527.136963 421.567963,526.436951 
	C422.958038,526.982422 423.241943,528.201782 423.811768,529.191650 
	C431.959503,543.346619 442.106567,555.693481 455.250854,565.618225 
	C489.861633,591.751343 537.508545,589.665222 569.738464,564.708984 
	C611.984131,531.997375 624.215515,472.553070 598.973633,424.074158 
	C577.564941,382.957153 533.135010,361.780731 489.742188,372.264160 
	C461.822021,379.009491 441.190033,395.592590 426.308746,420.742584 
z"/>
<path fill="#000000" opacity="1.000000" stroke="none" 
	d="
M384.810303,720.740479 
	C399.534973,708.603943 418.790710,716.995850 423.023315,736.134949 
	C427.627838,756.955872 416.587128,770.700989 394.375549,770.999756 
	C379.342194,771.201965 369.535339,754.375427 374.199493,737.738525 
	C376.038330,731.179504 379.504272,725.585938 384.810303,720.740479 
z"/>
<path fill="#000000" opacity="1.000000" stroke="none" 
	d="
M529.123291,734.329590 
	C514.216675,740.788940 505.002594,738.053406 498.624512,725.537720 
	C492.076843,712.689331 496.058075,699.192688 508.543915,692.080017 
	C514.310486,688.795105 520.425659,686.754272 527.147644,688.082336 
	C534.851257,689.604431 541.347290,692.746033 543.739746,701.165833 
	C546.416016,710.584839 545.439087,719.270996 538.882507,726.880554 
	C536.255859,729.929016 532.966675,732.208374 529.123291,734.329590 
z"/>
<path fill="#000000" opacity="1.000000" stroke="none" 
	d="
M311.747864,682.438538 
	C314.059174,681.816711 315.969971,681.060364 317.930725,680.894531 
	C337.982452,679.198120 343.267975,694.621582 339.115234,708.835693 
	C335.699036,720.528992 322.801666,727.776367 310.698303,726.076904 
	C308.667389,725.791748 306.789398,725.121704 305.249786,723.778625 
	C292.394958,712.564209 289.428772,695.664124 307.276825,684.392822 
	C308.525421,683.604248 310.000671,683.174561 311.747864,682.438538 
z"/>
<path fill="#000000" opacity="1.000000" stroke="none" 
	d="
M461.591736,695.427307 
	C454.973022,703.284851 446.039886,705.306458 436.578033,701.336060 
	C428.371765,697.892517 423.037323,689.514771 423.785004,681.244690 
	C424.725037,670.847229 431.402740,662.836426 440.827301,660.941406 
	C443.627228,660.378418 446.426117,660.517700 449.201324,661.432373 
	C460.858887,665.274170 470.190460,683.052124 461.591736,695.427307 
z"/>
<path fill="#000000" opacity="1.000000" stroke="none" 
	d="
M285.331055,788.007690 
	C287.584900,793.835083 286.779327,799.232178 284.829681,804.470703 
	C282.367432,811.086426 277.372650,814.147705 269.542023,814.258789 
	C261.305511,814.375671 254.760925,810.482544 251.960297,803.516113 
	C249.634552,797.730957 249.644516,791.700500 251.674835,785.910461 
	C255.138000,776.034546 265.151337,772.202454 274.400848,776.948975 
	C279.106354,779.363708 282.916504,782.746216 285.331055,788.007690 
z"/>
<path fill="#000000" opacity="1.000000" stroke="none" 
	d="
M480.078125,812.668091 
	C476.660309,822.254761 468.777832,826.261841 459.530701,823.455750 
	C451.253113,820.943909 445.190125,810.195007 447.450562,802.023254 
	C447.671570,801.224243 447.931610,800.433655 448.217651,799.655334 
	C451.971008,789.441711 458.155396,785.297424 466.314545,787.517944 
	C476.349670,790.249023 482.435516,799.172058 480.851959,808.851624 
	C480.664398,809.998230 480.405914,811.133301 480.078125,812.668091 
z"/>
<path fill="#000000" opacity="1.000000" stroke="none" 
	d="
M562.763000,442.863464 
	C561.277405,474.867706 532.836121,499.505585 500.177948,497.143860 
	C477.512878,495.504791 460.523041,483.927155 450.606598,463.449341 
	C441.567200,444.782867 444.313782,426.567841 456.782135,410.376709 
	C471.844849,390.816681 492.626312,383.907410 516.285889,388.582825 
	C538.237000,392.920624 553.470520,406.405334 560.460815,428.211334 
	C561.937683,432.818329 562.468018,437.623596 562.763000,442.863464 
z"/>
<path fill="#000000" opacity="1.000000" stroke="none" 
	d="
M374.303528,398.610046 
	C391.763458,411.874603 400.624512,429.099579 396.752899,450.541901 
	C392.563568,473.744019 377.582214,488.570435 355.081329,495.044861 
	C334.057220,501.094360 315.020111,496.006439 298.985748,481.462555 
	C271.683319,456.697968 275.357544,416.453247 306.878326,396.763519 
	C329.294952,382.760803 351.966187,384.011017 374.303528,398.610046 
z"/>
</svg>